# xmcd
# 
# Track frame offsets:
#     150
#     11777
#     26041
#     36532
#     67555
#     79581
#     91590
#     102011
#     114081
#     126565
#     140237
#     156059
#     175244
#     196031
#     206809
#     220104
#     236818
# 
# Disc length: 3357
# 
# Revision: 2
# Processed by: cddbd v1.5.2PL0 Copyright (c) Steve Scherf et al.
# Submitted via: fre:ac v1.0.17
# 
DISCID=e30d1b11
DTITLE=Various Artist - Robert Johnson  The Heritage CD1 Sons and Daughters
DYEAR=2011
DGENRE=Blues
TTITLE0=Junior Parker - Sweet Home Chicago
TTITLE1=John Mayall Bluesbreakers with Eric Clapton - Ramblin' On My Mind
TTITLE2=Robert Johnson - Love In Vain
TTITLE3=Bob Dylan - A Hard Rain's A-Gonna Fall
TTITLE4=Bonnie Raitt - Walking Blues
TTITLE5=Rising Sons with Taj Mahal and Ry Cooder - Last Fair Deal Gone Down
TTITLE6=Robert Johnson - Milkcow's Calf Blues
TTITLE7=Elvis Presley - Milkcow Blues Boogie
TTITLE8=Status Quo - Sweet Home Chicago
TTITLE9=Robert Johnson - Terraplane Blues
TTITLE10=Keb' Mo - Kindhearted Woman Blues
TTITLE11=Patti Smith - Come On In My Kitchen
TTITLE12=Cassandra Wilson - Hellhound On My Trail
TTITLE13=Robert Johnson - Malted Milk
TTITLE14=Roy Rogers with John Lee Hooker - Terraplane Blues
TTITLE15=Johnny Winter - When You Got A Good Friend
TTITLE16=B.B. King - Dust My Broom
EXTD=
EXTT0=
EXTT1=
EXTT2=
EXTT3=
EXTT4=
EXTT5=
EXTT6=\n\n
EXTT7=
EXTT8=
EXTT9=
EXTT10=
EXTT11=
EXTT12=
EXTT13=
EXTT14=
EXTT15=
EXTT16=
PLAYORDER=
